<?xml version="1.0" encoding="iso-8859-1"?>
<!-- Uploaded to: SVG Repo, www.svgrepo.com, Generator: SVG Repo Mixer Tools -->
<svg fill="#000000" height="800px" width="800px" version="1.1" id="Capa_1" xmlns="http://www.w3.org/2000/svg" xmlns:xlink="http://www.w3.org/1999/xlink" 
	 viewBox="0 0 489.99 489.99" xml:space="preserve">
<g>
	<path d="M107.261,342.857c27.183,0,49.296-21.97,49.296-48.97c0-27.001-22.113-48.961-49.296-48.961
		c-27.184,0-49.297,21.96-49.297,48.961C57.964,320.886,80.077,342.857,107.261,342.857z M107.261,265.776
		c15.684,0,28.446,12.614,28.446,28.11c0,15.506-12.762,28.119-28.446,28.119c-15.684,0-28.447-12.614-28.447-28.119
		C78.815,278.39,91.577,265.776,107.261,265.776z"/>
	<path d="M333.433,293.886c0,27,22.113,48.97,49.297,48.97s49.297-21.97,49.297-48.97c0-27.001-22.113-48.961-49.297-48.961
		S333.433,266.886,333.433,293.886z M382.729,265.776c15.684,0,28.446,12.614,28.446,28.11c0,15.506-12.762,28.119-28.446,28.119
		s-28.446-12.614-28.446-28.119C354.283,278.39,367.045,265.776,382.729,265.776z"/>
	<path d="M242.969,97.922c27.183,0,49.302-21.961,49.302-48.961S270.153,0,242.969,0c-27.184,0-49.297,21.961-49.297,48.961
		S215.785,97.922,242.969,97.922z M242.969,20.851c15.688,0,28.451,12.615,28.451,28.11s-12.763,28.11-28.451,28.11
		c-15.684,0-28.447-12.615-28.447-28.11S227.286,20.851,242.969,20.851z"/>
	<path d="M433.624,368.745c-31.074-16.643-70.703-16.657-101.815,0.009c-5.911,3.17-15.052,9.113-24.265,18.324l-54.148-74.43
		v-67.771c30.585-1.023,60.734-6.535,89.755-16.456c4.169-1.426,6.989-5.315,7.056-9.713c0-0.051,0.025-1.139,0.025-1.191
		c0-20.404-9.606-68.658-56.357-93.696c-31.075-16.643-70.703-16.656-101.815,0.01c-15.832,8.491-54.837,36.848-56.327,94.725
		c-0.115,4.457,2.836,8.42,7.056,9.866c29.031,9.92,59.175,15.432,89.756,16.456v67.781l-52.291,71.862
		c-6.238-5.826-13.54-11.193-22.098-15.777c-31.075-16.643-70.703-16.657-101.815,0.009c-15.832,8.491-54.837,36.848-56.327,94.725
		c-0.115,4.457,2.836,8.419,7.056,9.865C39.394,484.39,73.098,489.99,107.25,489.99c34.157,0,67.866-5.599,100.181-16.645
		c4.169-1.426,6.989-5.315,7.056-9.713c0-0.051,0.025-1.139,0.025-1.191c0-13.399-4.144-38.81-20.23-61.769l48.692-66.906
		l50.891,69.943c-9.915,14.823-17.732,34.477-18.383,59.771c-0.115,4.457,2.836,8.419,7.056,9.865
		c32.325,11.046,66.029,16.645,100.182,16.645c34.157,0,67.866-5.599,100.181-16.645c4.169-1.426,6.989-5.315,7.056-9.713
		c0-0.051,0.025-1.139,0.025-1.191C489.98,442.037,480.374,393.783,433.624,368.745z M201.909,142.208
		c25.066-13.428,57.089-13.418,82.115-0.009c12.752,6.841,41.983,30.299,45.051,68.895c-55.812,17.429-116.461,17.429-172.273-0.021
		C162.103,168.455,189.167,149.04,201.909,142.208z M21.082,455.996c5.302-42.619,32.366-62.033,45.107-68.865
		c25.066-13.428,57.089-13.418,82.115-0.009c12.752,6.841,41.983,30.299,45.051,68.895
		C137.543,473.446,76.895,473.446,21.082,455.996z M296.551,455.996c5.302-42.619,32.366-62.033,45.108-68.865
		c25.066-13.428,57.089-13.418,82.115-0.009c12.752,6.841,41.983,30.299,45.051,68.895
		C413.012,473.446,352.363,473.446,296.551,455.996z"/>
</g>
</svg>